<svg width="30" height="28" viewBox="0 0 30 28" fill="none" xmlns="http://www.w3.org/2000/svg">
<path d="M1.89597 1.22052L4.84263 1.73052L6.20688 17.9839C6.31597 19.3114 7.42522 20.3299 8.75688 20.3257H24.2113C25.482 20.3285 26.5601 19.3935 26.74 18.1355L28.0845 8.84502C28.2346 7.8066 27.5135 6.84327 26.4765 6.6931C26.3859 6.68035 5.3158 6.67327 5.3158 6.67327" stroke="#40474C" stroke-width="2.3" stroke-linecap="round" stroke-linejoin="round"/>
<path d="M18.0106 11.9091H21.939" stroke="#40474C" stroke-width="2.3" stroke-linecap="round" stroke-linejoin="round"/>
<path fill-rule="evenodd" clip-rule="evenodd" d="M8.13538 25.2367C8.5618 25.2367 8.90605 25.5824 8.90605 26.0074C8.90605 26.4338 8.5618 26.7794 8.13538 26.7794C7.70897 26.7794 7.36472 26.4338 7.36472 26.0074C7.36472 25.5824 7.70897 25.2367 8.13538 25.2367Z" fill="#40474C" stroke="#40474C" stroke-width="2.3" stroke-linecap="round" stroke-linejoin="round"/>
<path fill-rule="evenodd" clip-rule="evenodd" d="M24.1158 25.2367C24.5422 25.2367 24.8879 25.5824 24.8879 26.0074C24.8879 26.4338 24.5422 26.7794 24.1158 26.7794C23.6894 26.7794 23.3452 26.4338 23.3452 26.0074C23.3452 25.5824 23.6894 25.2367 24.1158 25.2367Z" fill="#40474C" stroke="#40474C" stroke-width="2.3" stroke-linecap="round" stroke-linejoin="round"/>
</svg>
