<svg width="103" height="103" viewBox="0 0 103 103" fill="none" xmlns="http://www.w3.org/2000/svg">
<rect x="0.261566" width="102.738" height="102.738" rx="51.3692" fill="url(#paint0_linear_19_98)"/>
<g clip-path="url(#clip0_19_98)">
<path d="M56.354 74.5127C55.7022 74.5127 55.1732 75.0417 55.1732 75.6935C55.1732 76.3452 55.7022 76.8742 56.354 76.8742C57.0058 76.8742 57.5348 76.3452 57.5348 75.6935C57.5348 75.0417 57.0058 74.5127 56.354 74.5127Z" fill="white"/>
<path d="M72.885 26.5727H69.3426V24.6834C69.3426 22.7302 67.7535 21.1411 65.8003 21.1411H37.4614C35.5081 21.1411 33.919 22.7302 33.919 24.6834V26.5727H30.3767C28.4234 26.5727 26.8343 28.1618 26.8343 30.1151C26.8343 37.7969 30.4288 43.4423 36.2603 45.014C38.2594 49.4142 41.4201 53.1548 45.4319 55.8578C46.356 56.4804 46.9077 57.5463 46.9077 58.709V65.215C46.0982 65.4226 45.3556 65.8434 44.7491 66.4501C43.8568 67.3426 43.3653 68.5284 43.3653 69.7895H42.1845C40.2313 69.7895 38.6422 71.3786 38.6422 73.3319V80.4166C38.6422 81.0687 39.1709 81.5974 39.823 81.5974H63.4387C64.0907 81.5974 64.6195 81.0687 64.6195 80.4166V73.3319C64.6195 71.3786 63.0304 69.7895 61.0771 69.7895H59.8963C59.8963 67.5928 58.3888 65.7414 56.354 65.2159V58.7149C56.354 57.5484 56.906 56.4805 57.8309 55.8579C61.8431 53.1547 65.0038 49.414 67.0028 45.0136C72.8334 43.4413 76.4274 37.7963 76.4274 30.1151C76.4274 28.1618 74.8383 26.5727 72.885 26.5727ZM29.1959 30.1151C29.1959 29.464 29.7256 28.9343 30.3767 28.9343H33.919V34.2124C33.919 36.904 34.3267 39.5398 35.1317 42.0781C31.3741 40.2168 29.1959 35.9182 29.1959 30.1151ZM61.0771 72.1511C61.7282 72.1511 62.2579 72.6808 62.2579 73.3319V79.2358H41.0037V73.3319C41.0037 72.6808 41.5334 72.1511 42.1845 72.1511H61.0771ZM66.9811 34.2124C66.9811 37.4378 66.3389 40.5764 65.0722 43.5406C63.2703 47.758 60.3101 51.3399 56.5117 53.8991C54.9342 54.9609 53.9924 56.7613 53.9924 58.7149V66.2472C53.9924 66.8993 54.5212 67.4279 55.1732 67.4279C56.4754 67.4279 57.5348 68.4873 57.5348 69.7895H45.7269C45.7269 69.1592 45.9727 68.5663 46.4189 68.12C46.8433 67.6956 47.4003 67.4526 47.9959 67.4297C48.0265 67.4321 48.0573 67.4333 48.0883 67.4333C48.7404 67.4333 49.2691 66.8993 49.2691 66.2472V58.709C49.2691 56.7595 48.3279 54.9615 46.7515 53.8993C42.9527 51.3401 39.9925 47.7581 38.1904 43.5404C36.9232 40.5772 36.2806 37.4388 36.2806 34.2124V24.6834C36.2806 24.0324 36.8103 23.5027 37.4614 23.5027H65.8003C66.4514 23.5027 66.9811 24.0324 66.9811 24.6834V34.2124ZM68.1304 42.0779C68.935 39.5389 69.3426 36.9033 69.3426 34.2124V28.9343H72.885C73.5361 28.9343 74.0658 29.464 74.0658 30.1151C74.0658 35.9178 71.8878 40.2163 68.1304 42.0779Z" fill="white"/>
<path d="M60.9754 35.0932C60.8367 34.6657 60.4671 34.3541 60.0222 34.2896L54.9264 33.5499L52.6471 28.9313C52.4481 28.5282 52.0377 28.273 51.5882 28.273C51.1386 28.273 50.7282 28.5282 50.5292 28.9313L48.25 33.5499L43.1543 34.2896C42.7093 34.3542 42.3399 34.6658 42.2009 35.0932C42.062 35.5208 42.1779 35.99 42.4998 36.3038L46.1878 39.8981L45.3174 44.9739C45.2414 45.417 45.4235 45.8646 45.7872 46.1289C46.1509 46.393 46.633 46.4278 47.0307 46.2187L51.5883 43.8226L56.1469 46.2187C56.5472 46.4291 57.0291 46.3914 57.3904 46.1288C57.754 45.8645 57.9361 45.4167 57.86 44.9737L56.9886 39.898L60.6766 36.3038C60.9986 35.99 61.1143 35.5208 60.9754 35.0932ZM54.8957 38.6401C54.6174 38.9114 54.4902 39.3024 54.5561 39.6856L55.1277 43.015L52.1376 41.4433C51.7934 41.2625 51.3825 41.2625 51.0387 41.4434L48.0496 43.015L48.6206 39.6853C48.6863 39.3022 48.5592 38.9113 48.2809 38.6401L45.8622 36.2828L49.2039 35.7977C49.5886 35.7418 49.9211 35.5003 50.0932 35.1517L51.5883 32.1219L53.0834 35.1517C53.2554 35.5003 53.5879 35.7418 53.9726 35.7977L57.3145 36.2828L54.8957 38.6401Z" fill="white"/>
<path d="M51.6308 74.5127H46.9077C46.2557 74.5127 45.7269 75.0413 45.7269 75.6935C45.7269 76.3456 46.2557 76.8742 46.9077 76.8742H51.6308C52.2829 76.8742 52.8116 76.3456 52.8116 75.6935C52.8116 75.0413 52.2829 74.5127 51.6308 74.5127Z" fill="white"/>
<path d="M69.8161 78.055H70.4751C70.1394 77.9885 69.9136 77.9819 69.8161 78.055Z" fill="white"/>
</g>
<defs>
<linearGradient id="paint0_linear_19_98" x1="51.6308" y1="0" x2="51.6308" y2="102.738" gradientUnits="userSpaceOnUse">
<stop stop-color="#7DB9D3"/>
<stop offset="1" stop-color="#6CAFDD"/>
</linearGradient>
<clipPath id="clip0_19_98">
<rect width="60.4563" height="60.4563" fill="white" transform="translate(21.4026 21.1411)"/>
</clipPath>
</defs>
</svg>
