<svg width="103" height="103" viewBox="0 0 103 103" fill="none" xmlns="http://www.w3.org/2000/svg">
<rect x="0.261475" width="102.738" height="102.738" rx="51.3692" fill="url(#paint0_linear_19_95)"/>
<g clip-path="url(#clip0_19_95)">
<path d="M80.8402 30.7439C80.5029 29.8753 79.7716 29.2452 78.8839 29.0584C77.9767 28.8668 77.0288 29.1594 76.3487 29.8396L70.0062 36.182L66.9092 33.085L73.6548 26.3394C74.3571 25.6372 74.6585 24.6592 74.4615 23.7233C74.2689 22.8082 73.6189 22.0543 72.7231 21.7064C66.8361 19.4195 60.1471 20.8273 55.6821 25.2922C53.3312 27.6431 51.7963 30.6114 51.2419 33.8782C51.1234 34.4338 51.0086 35.0239 50.8872 35.648C50.1779 39.2935 49.2953 43.8306 46.7074 46.4183L23.5362 69.5895C20.6751 72.4507 20.6751 77.1063 23.5362 79.9676C24.9669 81.3982 26.8461 82.1134 28.7253 82.1134C30.6044 82.1134 32.4837 81.3982 33.9143 79.9676L57.0853 56.7965C59.6733 54.2085 64.2102 53.326 67.8557 52.6167C68.4799 52.4953 69.0699 52.3805 69.6256 52.2619C72.8924 51.7075 75.8608 50.1726 78.2117 47.8217C78.9053 47.128 79.106 46.1864 78.8188 45.3493C81.9668 41.1792 82.7504 35.6621 80.8402 30.7439ZM78.0469 31.5378C78.1527 31.4321 78.2775 31.3848 78.3893 31.4085C78.4852 31.4287 78.5565 31.4976 78.6016 31.6133C80.1369 35.5663 79.6062 39.9792 77.2482 43.4241L71.7044 37.8803L78.0469 31.5378ZM76.5133 46.1236C74.5115 48.1254 71.9829 49.4305 69.201 49.8981C69.1835 49.901 69.1662 49.9043 69.1488 49.908C68.6074 50.0238 68.0195 50.1381 67.397 50.2593C63.4305 51.031 58.4938 51.9913 55.3868 55.0982L32.2161 78.2692C30.2915 80.1941 27.1595 80.194 25.2346 78.2691C23.3099 76.3444 23.3099 73.2126 25.2346 71.2878L48.4057 48.1166C51.5127 45.0098 52.473 40.0732 53.2447 36.1066C53.3658 35.4841 53.4801 34.8962 53.5959 34.3548C53.5996 34.3374 53.603 34.3201 53.606 34.3025C54.0732 31.5208 55.3784 28.9922 57.3805 26.9903C59.9659 24.4047 63.4288 23.0266 66.956 23.0266C68.602 23.0266 70.2627 23.327 71.8537 23.9449C71.9984 24.0011 72.0851 24.0929 72.1114 24.2176C72.141 24.3585 72.0846 24.5128 71.9566 24.6407L64.3618 32.2354C63.8929 32.7044 63.8929 33.4648 64.3618 33.9338L76.5199 46.0919C76.5242 46.0961 76.528 46.1 76.5312 46.1038C76.5265 46.1099 76.5206 46.1163 76.5133 46.1236Z" fill="white"/>
<path d="M62.6632 35.6325C62.4379 35.4073 62.1325 35.2808 61.814 35.2808C61.4956 35.2808 61.1901 35.4073 60.9649 35.6325L57.5686 39.029C57.0996 39.4979 57.0996 40.2583 57.5686 40.7273L62.3638 45.5227C62.5889 45.7478 62.8944 45.8744 63.2129 45.8744C63.5314 45.8744 63.8369 45.7478 64.062 45.5227L67.4585 42.1262C67.9274 41.6573 67.9274 40.8969 67.4585 40.4278L62.6632 35.6325ZM63.2128 42.9751L60.1158 39.8781L61.814 38.1798L64.911 41.2768L63.2128 42.9751Z" fill="white"/>
<path d="M29.5742 73.9292C29.1051 73.4601 28.3451 73.4607 27.8762 73.9295C27.4072 74.3984 27.4075 75.1591 27.8764 75.6281C28.1109 75.8625 28.4182 75.9798 28.7255 75.9798C29.0328 75.9798 29.3401 75.8625 29.5747 75.6281C30.0436 75.1592 30.0436 74.3988 29.5747 73.9298L29.5742 73.9292Z" fill="white"/>
<path d="M51.0475 50.7587L31.6975 70.1086C31.2285 70.5775 31.2285 71.3379 31.6975 71.807C31.932 72.0414 32.2393 72.1587 32.5466 72.1587C32.8539 72.1587 33.1612 72.0414 33.3957 71.807L52.7457 52.4569C53.2147 51.988 53.2147 51.2276 52.7457 50.7586C52.2767 50.2898 51.5165 50.2898 51.0475 50.7587Z" fill="white"/>
</g>
<defs>
<linearGradient id="paint0_linear_19_95" x1="51.6307" y1="0" x2="51.6307" y2="102.738" gradientUnits="userSpaceOnUse">
<stop stop-color="#7DB9D3"/>
<stop offset="1" stop-color="#6CAFDD"/>
</linearGradient>
<clipPath id="clip0_19_95">
<rect width="61.4883" height="61.4883" fill="white" transform="translate(20.8866 20.6251)"/>
</clipPath>
</defs>
</svg>
