<svg width="98" height="50" viewBox="0 0 98 50" fill="none" xmlns="http://www.w3.org/2000/svg">
<path d="M67.7137 9.60768L47.3771 41.2437C47.0108 41.8139 46.8048 42.4722 46.7806 43.1495C46.7564 43.8268 46.9149 44.4981 47.2396 45.093C47.5643 45.6879 48.0431 46.1844 48.6258 46.5305C49.2085 46.8765 49.8736 47.0594 50.5513 47.0598H91.2269C91.9046 47.0594 92.5698 46.8765 93.1525 46.5305C93.7352 46.1844 94.214 45.6879 94.5386 45.093C94.8633 44.4981 95.0218 43.8268 94.9977 43.1495C94.9735 42.4722 94.7674 41.8139 94.4011 41.2437L74.0645 9.60768C73.7226 9.07608 73.2527 8.63882 72.6979 8.33601C72.1431 8.03319 71.5212 7.87451 70.8891 7.87451C70.2571 7.87451 69.6351 8.03319 69.0803 8.33601C68.5255 8.63882 68.0556 9.07608 67.7137 9.60768V9.60768Z" stroke="url(#paint0_linear_332_4152)" stroke-width="4.5" stroke-miterlimit="10"/>
<path d="M20.7807 15.4213L3.75881 41.2043C3.38244 41.773 3.16722 42.433 3.13603 43.1142C3.10484 43.7954 3.25885 44.4723 3.58168 45.073C3.90451 45.6736 4.38409 46.1756 4.96943 46.5254C5.55477 46.8753 6.22399 47.06 6.90591 47.0598H40.9719C41.6537 47.0596 42.3227 46.8747 42.9079 46.5249C43.4931 46.175 43.9726 45.6732 44.2956 45.0728C44.6186 44.4723 44.7729 43.7956 44.7422 43.1145C44.7116 42.4334 44.4971 41.7733 44.1215 41.2043L27.0872 15.4213C26.7438 14.8986 26.2758 14.4695 25.7254 14.1726C25.175 13.8757 24.5594 13.7202 23.934 13.7202C23.3086 13.7202 22.693 13.8757 22.1425 14.1726C21.5921 14.4695 21.1242 14.8986 20.7807 15.4213V15.4213Z" stroke="url(#paint1_linear_332_4152)" stroke-width="4.5" stroke-miterlimit="10"/>
<path d="M45.2255 4.62451L20.8941 41.1944C20.5162 41.763 20.2995 42.4234 20.2672 43.1054C20.2348 43.7873 20.388 44.4653 20.7104 45.0671C21.0328 45.6689 21.5123 46.172 22.098 46.5229C22.6837 46.8738 23.3535 47.0593 24.0362 47.0597H72.7016C73.3843 47.0593 74.0541 46.8738 74.6398 46.5229C75.2254 46.172 75.705 45.6689 76.0274 45.0671C76.3498 44.4653 76.503 43.7873 76.4706 43.1054C76.4383 42.4234 76.2216 41.763 75.8437 41.1944L51.5098 4.62451C51.1655 4.10652 50.6984 3.68168 50.1502 3.38782C49.602 3.09396 48.9897 2.94019 48.3677 2.94019C47.7457 2.94019 47.1333 3.09396 46.5851 3.38782C46.0369 3.68168 45.5698 4.10652 45.2255 4.62451Z" fill="#FAFAFB" stroke="url(#paint2_linear_332_4152)" stroke-width="4.5" stroke-miterlimit="10"/>
<line x1="48.3773" y1="21.3258" x2="48.3773" y2="38.4703" stroke="#4E8ABE" stroke-width="1.59138" stroke-linecap="round"/>
<line x1="46.2763" y1="18.921" x2="48.3691" y2="21.0138" stroke="#4E8ABE" stroke-width="1.59138" stroke-linecap="round"/>
<line x1="48.3691" y1="21.0138" x2="50.4619" y2="18.921" stroke="#4E8ABE" stroke-width="1.59138" stroke-linecap="round"/>
<line x1="50.4618" y1="40.875" x2="48.369" y2="38.7822" stroke="#4E8ABE" stroke-width="1.59138" stroke-linecap="round"/>
<line x1="48.369" y1="38.782" x2="46.2762" y2="40.8748" stroke="#4E8ABE" stroke-width="1.59138" stroke-linecap="round"/>
<line x1="55.5627" y1="25.2363" x2="41.1842" y2="34.5738" stroke="#4E8ABE" stroke-width="1.59138" stroke-linecap="round"/>
<line x1="56.4351" y1="22.1645" x2="55.8197" y2="25.0594" stroke="#4E8ABE" stroke-width="1.59138" stroke-linecap="round"/>
<line x1="55.8198" y1="25.0594" x2="58.7148" y2="25.6747" stroke="#4E8ABE" stroke-width="1.59138" stroke-linecap="round"/>
<line x1="40.3027" y1="37.6318" x2="40.9181" y2="34.7368" stroke="#4E8ABE" stroke-width="1.59138" stroke-linecap="round"/>
<line x1="40.9182" y1="34.7367" x2="38.0232" y2="34.1214" stroke="#4E8ABE" stroke-width="1.59138" stroke-linecap="round"/>
<line x1="41.1842" y1="25.2223" x2="55.5628" y2="34.5599" stroke="#4E8ABE" stroke-width="1.59138" stroke-linecap="round"/>
<line x1="38.023" y1="25.6747" x2="40.918" y2="25.0594" stroke="#4E8ABE" stroke-width="1.59138" stroke-linecap="round"/>
<line x1="40.9181" y1="25.0594" x2="40.3027" y2="22.1644" stroke="#4E8ABE" stroke-width="1.59138" stroke-linecap="round"/>
<line x1="58.7149" y1="34.1213" x2="55.8199" y2="34.7367" stroke="#4E8ABE" stroke-width="1.59138" stroke-linecap="round"/>
<line x1="55.8199" y1="34.7366" x2="56.4352" y2="37.6316" stroke="#4E8ABE" stroke-width="1.59138" stroke-linecap="round"/>
<path d="M54.5861 29.8725C54.5952 29.8883 54.5952 29.9078 54.5861 29.9236L51.4997 35.2694C51.4905 35.2852 51.4737 35.295 51.4554 35.295L45.2826 35.295C45.2643 35.295 45.2474 35.2852 45.2383 35.2694L42.1519 29.9236C42.1427 29.9078 42.1427 29.8883 42.1519 29.8725L45.2383 24.5266L44.5492 24.1288L45.2383 24.5266C45.2474 24.5108 45.2643 24.5011 45.2826 24.5011L51.4554 24.5011C51.4737 24.5011 51.4905 24.5108 51.4997 24.5266L54.5861 29.8725Z" stroke="#4E8ABE" stroke-width="1.59138"/>
<defs>
<linearGradient id="paint0_linear_332_4152" x1="70.8891" y1="7.87451" x2="70.8891" y2="47.0598" gradientUnits="userSpaceOnUse">
<stop stop-color="#7DB9D3"/>
<stop offset="1" stop-color="#4E8ABE"/>
</linearGradient>
<linearGradient id="paint1_linear_332_4152" x1="23.9391" y1="13.7202" x2="23.9391" y2="47.0598" gradientUnits="userSpaceOnUse">
<stop stop-color="#7DB9D3"/>
<stop offset="1" stop-color="#4E8ABE"/>
</linearGradient>
<linearGradient id="paint2_linear_332_4152" x1="48.3689" y1="2.94019" x2="48.3689" y2="47.0597" gradientUnits="userSpaceOnUse">
<stop stop-color="#7DB9D3"/>
<stop offset="1" stop-color="#4E8ABE"/>
</linearGradient>
</defs>
</svg>
