<svg width="37" height="37" viewBox="0 0 37 37" fill="none" xmlns="http://www.w3.org/2000/svg">
<g clip-path="url(#clip0_48_214)">
<path d="M36.1915 4.4198C35.7518 3.88202 35.0931 3.58594 34.3367 3.58594C33.9256 3.58594 33.4899 3.67245 33.0423 3.84357L2.56893 15.4762C0.951747 16.0933 0.733943 17.0195 0.747951 17.5166C0.761958 18.0137 1.03195 18.9261 2.68154 19.451C2.69143 19.454 2.70132 19.4571 2.71121 19.4598L9.03219 21.2687L12.4506 31.0438C12.9167 32.3764 13.9629 33.2042 15.1812 33.2042C15.9495 33.2042 16.705 32.8824 17.3664 32.2737L21.2762 28.6738L26.947 33.24C26.9476 33.2405 26.9484 33.2408 26.949 33.2413L27.0028 33.2847C27.0077 33.2886 27.013 33.2927 27.0179 33.2965C27.6482 33.7854 28.3363 34.0436 29.0083 34.0439C30.3215 34.0439 31.3674 33.0719 31.672 31.5678L36.665 6.91342C36.8655 5.92383 36.6974 5.03833 36.1915 4.4198ZM11.1468 20.9251L23.3419 14.695L15.7484 22.7637C15.624 22.8958 15.5358 23.0576 15.4924 23.2336L14.0282 29.1646L11.1468 20.9251ZM15.9374 30.7219C15.8868 30.7683 15.836 30.8098 15.7852 30.848L17.1437 25.346L19.6148 27.3359L15.9374 30.7219ZM34.5976 6.49457L29.6046 31.1493C29.5566 31.3852 29.403 31.9342 29.0083 31.9342C28.8133 31.9342 28.5683 31.8279 28.3176 31.6349L21.8917 26.4608C21.8909 26.46 21.8898 26.4592 21.8887 26.4586L18.0651 23.3797L29.0463 11.7114C29.3978 11.3379 29.4297 10.7658 29.1218 10.3554C28.8136 9.9451 28.2552 9.81601 27.7985 10.0495L9.73751 19.2763L3.33056 17.4433L33.7945 5.81424C34.0519 5.71591 34.2315 5.69531 34.3367 5.69531C34.4013 5.69531 34.5161 5.703 34.5586 5.75546C34.6147 5.82385 34.6861 6.05704 34.5976 6.49457Z" fill="#40474C"/>
</g>
<defs>
<clipPath id="clip0_48_214">
<rect width="36" height="36" fill="white" transform="translate(0.747437 0.84375)"/>
</clipPath>
</defs>
</svg>
