<svg width="32" height="34" viewBox="0 0 32 34" fill="none" xmlns="http://www.w3.org/2000/svg">
<g clip-path="url(#clip0_48_216)">
<path d="M28.2148 3.56231C27.3948 2.80568 24.081 0.400117 16.7 0.367435C16.7 0.367435 7.99575 -0.157451 3.75259 3.73463C1.39061 6.09712 0.5597 9.55394 0.472054 13.8397C0.384408 18.1254 0.271012 26.1572 8.01308 28.335H8.02051L8.01556 31.6581C8.01556 31.6581 7.96604 33.0035 8.85191 33.2778C9.92347 33.6106 10.5523 32.588 11.5754 31.4858C12.1369 30.8807 12.9124 29.9918 13.4967 29.3124C18.7916 29.7581 22.8639 28.7395 23.3264 28.589C24.3955 28.2424 30.445 27.4674 31.429 19.4362C32.4446 11.1583 30.9377 5.92232 28.2148 3.56231ZM29.112 18.8424C28.2816 25.5481 23.3749 25.9695 22.4702 26.2597C22.0855 26.3835 18.5088 27.2733 14.0111 26.9797C14.0111 26.9797 10.6598 31.0228 9.613 32.074C9.44959 32.2384 9.25746 32.3048 9.12921 32.2721C8.94897 32.228 8.89945 32.0146 8.90143 31.7027C8.9044 31.257 8.93015 26.1805 8.93015 26.1805C8.93015 26.1805 8.92619 26.1805 8.93015 26.1805C2.38096 24.3622 2.76274 17.5263 2.83701 13.9466C2.91129 10.367 3.58374 7.43459 5.58128 5.4623C9.17031 2.21147 16.5638 2.69724 16.5638 2.69724C22.8074 2.72447 25.7993 4.60465 26.493 5.23452C28.7966 7.2068 29.9702 11.9263 29.112 18.8405V18.8424Z" fill="#40474C"/>
<path d="M19.7383 13.6526C19.6571 12.0156 18.8256 11.1558 17.2437 11.0732" stroke="#40474C" stroke-width="0.645124" stroke-linecap="round" stroke-linejoin="round"/>
<path d="M21.88 14.371C21.913 12.8459 21.4613 11.5717 20.5247 10.5483C19.5839 9.5213 18.2816 8.9558 16.6104 8.8335" stroke="#40474C" stroke-width="0.645124" stroke-linecap="round" stroke-linejoin="round"/>
<path d="M24.0726 15.2281C24.0525 12.5815 23.2617 10.4972 21.7003 8.975C20.1388 7.45283 18.1969 6.68366 15.8745 6.66748" stroke="#40474C" stroke-width="0.645124" stroke-linecap="round" stroke-linejoin="round"/>
<path d="M17.3263 19.2437C17.3263 19.2437 17.9131 19.2932 18.229 18.904L18.845 18.1291C19.1422 17.7448 19.8592 17.4997 20.5613 17.8909C21.0875 18.191 21.5983 18.5172 22.0919 18.8684C22.5579 19.211 23.5121 20.0073 23.515 20.0073C23.9696 20.3911 24.0746 20.9546 23.7651 21.5488C23.7651 21.5522 23.7626 21.5582 23.7626 21.5612C23.4218 22.1521 22.989 22.6849 22.4806 23.1398C22.4747 23.1427 22.4747 23.1457 22.4692 23.1487C22.0275 23.5178 21.5936 23.7275 21.1674 23.7781C21.1047 23.789 21.0409 23.793 20.9773 23.7899C20.7893 23.7918 20.6024 23.763 20.4237 23.7048L20.4098 23.6845C19.7532 23.4993 18.6569 23.0358 16.8312 22.0286C15.7747 21.4526 14.7688 20.7882 13.8245 20.0424C13.3511 19.6689 12.8996 19.2684 12.4721 18.8431L12.4266 18.7976L12.381 18.752L12.3355 18.706C12.3201 18.6911 12.3053 18.6758 12.2899 18.6604C11.8646 18.2329 11.4642 17.7814 11.0906 17.3081C10.345 16.3638 9.68054 15.3582 9.10444 14.3019C8.09726 12.4757 7.63377 11.3803 7.44858 10.7227L7.42827 10.7089C7.37022 10.5302 7.34162 10.3432 7.3436 10.1553C7.34013 10.0917 7.34395 10.0279 7.35499 9.96513C7.40814 9.53994 7.61826 9.10583 7.98535 8.66281C7.98832 8.65737 7.99129 8.65737 7.99426 8.65142C8.44898 8.14303 8.98188 7.71043 9.57288 7.36991C9.57585 7.36991 9.58179 7.36694 9.58526 7.36694C10.1795 7.05745 10.743 7.16243 11.1262 7.61453C11.1292 7.6175 11.924 8.5717 12.2652 9.03766C12.6163 9.53172 12.9426 10.043 13.2426 10.5697C13.6338 11.2714 13.3887 11.9899 13.0044 12.286L12.2295 12.902C11.8383 13.2179 11.8898 13.8047 11.8898 13.8047C11.8898 13.8047 13.0376 18.1489 17.3263 19.2437Z" fill="#40474C"/>
</g>
<defs>
<clipPath id="clip0_48_216">
<rect width="31.2946" height="33" fill="white" transform="translate(0.452759 0.34375)"/>
</clipPath>
</defs>
</svg>
