<svg width="33" height="33" viewBox="0 0 33 33" fill="none" xmlns="http://www.w3.org/2000/svg">
<g clip-path="url(#clip0_52_244)">
<path d="M0.823425 32.8438L3.07276 24.6264C1.68476 22.2211 0.955425 19.4944 0.956759 16.6984C0.960759 7.95708 8.07409 0.84375 16.8141 0.84375C21.0554 0.845083 25.0368 2.49708 28.0314 5.49442C31.0248 8.49175 32.6728 12.4758 32.6714 16.7131C32.6674 25.4558 25.5541 32.5691 16.8141 32.5691C14.1608 32.5678 11.5461 31.9024 9.23009 30.6384L0.823425 32.8438ZM9.61942 27.7678C11.8541 29.0944 13.9874 29.8891 16.8088 29.8904C24.0728 29.8904 29.9901 23.9784 29.9941 16.7104C29.9968 9.42775 24.1074 3.52375 16.8194 3.52108C9.55009 3.52108 3.63676 9.43308 3.63409 16.6998C3.63276 19.6664 4.50209 21.8877 5.96209 24.2118L4.63009 29.0758L9.61942 27.7678ZM24.8021 20.4824C24.7034 20.3171 24.4394 20.2184 24.0421 20.0198C23.6461 19.8211 21.6981 18.8624 21.3341 18.7304C20.9714 18.5984 20.7074 18.5318 20.4421 18.9291C20.1781 19.3251 19.4181 20.2184 19.1874 20.4824C18.9568 20.7464 18.7248 20.7798 18.3288 20.5811C17.9328 20.3824 16.6554 19.9651 15.1421 18.6144C13.9648 17.5638 13.1688 16.2664 12.9381 15.8691C12.7074 15.4731 12.9141 15.2584 13.1114 15.0611C13.2901 14.8838 13.5074 14.5984 13.7061 14.3664C13.9074 14.1371 13.9728 13.9718 14.1061 13.7064C14.2381 13.4424 14.1728 13.2104 14.0728 13.0118C13.9728 12.8144 13.1808 10.8638 12.8514 10.0704C12.5288 9.29842 12.2021 9.40242 11.9594 9.39042L11.1994 9.37708C10.9354 9.37708 10.5061 9.47575 10.1434 9.87308C9.78076 10.2704 8.75676 11.2278 8.75676 13.1784C8.75676 15.1291 10.1768 17.0131 10.3741 17.2771C10.5728 17.5411 13.1674 21.5438 17.1421 23.2598C18.0874 23.6678 18.8261 23.9118 19.4008 24.0944C20.3501 24.3958 21.2141 24.3531 21.8968 24.2518C22.6581 24.1384 24.2408 23.2931 24.5714 22.3678C24.9021 21.4411 24.9021 20.6478 24.8021 20.4824Z" fill="#40474C"/>
</g>
<defs>
<clipPath id="clip0_52_244">
<rect width="32" height="32" fill="white" transform="translate(0.747437 0.84375)"/>
</clipPath>
</defs>
</svg>
