<svg width="45" height="32" viewBox="0 0 45 32" fill="none" xmlns="http://www.w3.org/2000/svg">
<path d="M42.5923 5.79551C42.1106 4.0061 40.6997 2.59522 38.9103 2.11346C35.6412 1.21875 22.5647 1.21875 22.5647 1.21875C22.5647 1.21875 9.48823 1.21875 6.21911 2.07904C4.46411 2.56081 3.01882 4.0061 2.53705 5.79551C1.67676 9.06463 1.67676 15.8438 1.67676 15.8438C1.67676 15.8438 1.67676 22.6573 2.53705 25.892C3.01882 27.6814 4.4297 29.0923 6.21911 29.574C9.52264 30.4687 22.5647 30.4688 22.5647 30.4688C22.5647 30.4688 35.6412 30.4687 38.9103 29.6085C40.6997 29.1267 42.1106 27.7158 42.5923 25.9264C43.4526 22.6573 43.4526 15.8782 43.4526 15.8782C43.4526 15.8782 43.487 9.06463 42.5923 5.79551Z" stroke="#40474C" stroke-width="2.35887"/>
<path d="M18.0713 9.58081V22.1067L28.9454 15.8438L18.0713 9.58081Z" stroke="#40474C" stroke-width="2.35887" stroke-linejoin="round"/>
</svg>
